<svg xmlns="http://www.w3.org/2000/svg" width="32" height="32" viewBox="0 0 32 32">
  <defs>
    <linearGradient id="gradient" x1="0%" y1="0%" x2="100%" y2="100%">
      <stop offset="0%" stop-color="#3A66DB" />
      <stop offset="100%" stop-color="#2F9E44" />
    </linearGradient>
  </defs>
  <path fill="url(#gradient)" d="M16,2 C8.268,2 2,8.268 2,16 C2,23.732 8.268,30 16,30 C23.732,30 30,23.732 30,16 C30,8.268 23.732,2 16,2 Z M16,28 C9.373,28 4,22.627 4,16 C4,9.373 9.373,4 16,4 C22.627,4 28,9.373 28,16 C28,22.627 22.627,28 16,28 Z M21,12 L16,12 L16,8 L12,16 L17,16 L17,24 L21,12 Z" />
</svg>